<?xml version="1.0" standalone="no"?>
<!DOCTYPE svg PUBLIC "-//W3C//DTD SVG 20010904//EN"
 "http://www.w3.org/TR/2001/REC-SVG-20010904/DTD/svg10.dtd">
<svg version="1.0" xmlns="http://www.w3.org/2000/svg"
 width="1500.000000pt" height="1500.000000pt" viewBox="0 0 1500.000000 1500.000000"
 preserveAspectRatio="xMidYMid meet">
<metadata>
Created by potrace 1.11, written by Peter Selinger 2001-2013
</metadata>
<g transform="translate(0.000000,1500.000000) scale(0.100000,-0.100000)"
fill="#000000" stroke="none">
<path d="M4788 8206 c-72 -49 -94 -128 -55 -196 11 -19 30 -53 43 -75 12 -22
69 -121 126 -220 57 -99 111 -191 119 -205 8 -14 16 -27 19 -30 3 -3 14 -24
25 -47 11 -24 23 -43 28 -43 4 0 7 -4 7 -9 0 -4 29 -59 65 -120 36 -62 65
-114 65 -117 0 -8 54 -89 65 -96 5 -4 7 -8 3 -8 -4 0 7 -24 24 -52 17 -29 39
-66 48 -83 10 -16 28 -47 40 -68 l23 -38 -24 -17 c-13 -9 -26 -17 -29 -17 -10
0 -215 -129 -218 -137 -2 -4 -8 -8 -14 -8 -27 0 -323 -224 -484 -365 -95 -83
-256 -245 -339 -340 -38 -44 -78 -87 -87 -96 -10 -9 -18 -21 -18 -27 0 -6 -4
-12 -9 -14 -4 -1 -52 -61 -106 -133 -53 -71 -103 -138 -111 -147 -8 -10 -10
-18 -6 -18 4 0 2 -4 -4 -8 -13 -9 -133 -201 -181 -290 -77 -142 -140 -272
-135 -277 3 -3 0 -5 -6 -5 -7 0 -11 -3 -10 -7 1 -5 -8 -30 -21 -58 -53 -117
-88 -206 -138 -354 -39 -116 -102 -342 -109 -386 -1 -11 -3 -20 -4 -20 -1 0
-3 -7 -5 -15 -1 -8 -10 -52 -19 -98 -20 -95 -21 -100 -36 -207 -6 -44 -13 -91
-15 -104 -2 -13 -7 -56 -10 -96 l-7 -72 4211 0 4210 0 -2 53 c-1 30 -4 54 -7
54 -3 0 -6 24 -7 53 -1 28 -6 79 -12 112 -6 33 -13 76 -15 95 -3 19 -12 69
-21 110 -9 41 -18 86 -20 100 -2 14 -12 52 -21 85 -9 33 -18 69 -20 79 -4 21
-15 59 -60 201 -16 50 -29 92 -30 95 0 3 -4 12 -7 20 -3 8 -13 33 -21 55 -54
150 -140 345 -206 470 -72 134 -104 193 -136 243 -19 29 -34 56 -34 61 0 5 -3
11 -8 13 -4 2 -23 28 -42 58 -36 58 -186 266 -207 288 -8 8 -26 30 -41 50 -15
21 -29 39 -33 42 -3 3 -36 41 -74 85 -77 89 -269 281 -347 347 -28 24 -57 50
-66 58 -8 8 -54 45 -101 82 -47 37 -97 77 -111 88 -32 26 -336 230 -343 230
-4 0 -136 77 -145 85 -2 2 12 28 30 60 18 31 47 81 63 110 17 30 68 121 115
201 47 81 96 165 109 188 13 23 40 70 61 106 21 36 38 69 38 74 0 5 4 12 10
15 5 3 22 29 38 58 16 29 78 137 137 240 120 207 128 235 94 302 -37 73 -146
101 -212 54 -23 -17 -93 -121 -144 -218 -12 -22 -26 -47 -31 -55 -17 -26 -288
-497 -306 -532 -9 -18 -20 -35 -23 -38 -3 -3 -14 -21 -25 -40 -10 -19 -27 -50
-37 -67 -11 -18 -27 -48 -37 -65 -53 -92 -145 -253 -147 -256 -2 -3 -129 48
-210 83 -54 24 -306 110 -312 107 -2 -1 -22 6 -45 14 -44 16 -64 21 -108 30
-14 3 -39 9 -56 15 -32 10 -68 19 -94 23 -8 2 -40 8 -70 14 -30 7 -66 14 -80
16 -14 3 -25 5 -25 6 0 1 -13 4 -30 6 -16 2 -57 8 -90 14 -73 12 -137 20 -190
25 -22 2 -78 7 -125 12 -114 11 -641 10 -760 -1 -52 -5 -108 -10 -125 -11 -16
-2 -43 -5 -60 -8 -62 -11 -171 -28 -200 -32 -16 -2 -30 -4 -30 -5 0 -1 -13 -3
-28 -5 -16 -2 -61 -11 -100 -20 -40 -9 -79 -18 -87 -20 -8 -2 -35 -8 -60 -15
-25 -7 -53 -14 -62 -15 -103 -20 -593 -196 -635 -227 -17 -13 -30 -3 -53 40
-11 20 -30 53 -42 72 -11 19 -31 54 -44 77 -13 23 -53 92 -89 153 -36 61 -65
113 -65 116 0 2 -11 21 -23 42 -13 20 -32 51 -43 67 -10 17 -19 32 -19 35 0 3
-26 48 -57 100 -56 96 -81 139 -126 220 -13 25 -28 50 -32 55 -4 6 -17 26 -28
46 -41 73 -47 84 -52 89 -3 3 -14 24 -25 47 -11 24 -23 43 -27 43 -5 0 -8 5
-8 11 0 12 -59 68 -75 70 -55 9 -100 4 -127 -15z m925 -2861 c84 -41 165 -134
184 -209 13 -50 11 -171 -2 -203 -8 -18 -12 -33 -9 -33 6 0 -55 -90 -76 -111
-66 -68 -146 -100 -250 -101 -65 -1 -85 3 -142 30 -177 85 -250 281 -170 462
26 60 96 132 160 164 29 15 52 24 52 21 0 -3 8 -1 18 5 10 6 50 9 97 7 63 -3
92 -10 138 -32z m3877 0 c260 -131 257 -497 -3 -624 -175 -85 -380 -11 -464
167 -51 108 -37 257 32 350 25 33 81 79 126 104 27 15 49 25 49 23 0 -2 10 0
23 5 12 6 58 8 102 6 63 -3 93 -10 135 -31z"/>
</g>
</svg>
